<svg viewBox="0 0 320 102.04081632653062" height="102.04081632653062" width="320" style="width: 320px; height: 102.041px; position: absolute; top: 50%; left: 50%; transform: translate(-50%, -50%) scale(0.658281); z-index: 0; cursor: pointer;"><defs id="SvgjsDefs1021"></defs><g id="SvgjsG1022" featurekey="odWo6G-0" transform="matrix(1.0204081632653061,0,0,1.0204081632653061,0,0)" fill="#9896f1"><g xmlns="http://www.w3.org/2000/svg"><circle cx="49.494" cy="6.603" r="2.128"></circle><path d="M18.267,34.851l6.123-7.465c0.518-0.63,0.425-1.56-0.204-2.076c-0.629-0.517-1.56-0.424-2.076,0.204l-6.972,8.499   c-0.481,0.586-0.439,1.443,0.098,1.979l7.593,7.591c0.288,0.289,0.665,0.433,1.042,0.433c0.378,0,0.755-0.144,1.043-0.433   c0.576-0.576,0.576-1.51,0-2.086L18.267,34.851z"></path><path d="M44.093,32.998L36.5,25.406c-0.576-0.576-1.509-0.576-2.086,0c-0.576,0.577-0.576,1.511,0,2.087l6.647,6.646l-6.123,7.465   c-0.516,0.63-0.424,1.56,0.206,2.077c0.274,0.225,0.605,0.334,0.935,0.334c0.427,0,0.851-0.185,1.142-0.54l6.97-8.499   C44.671,34.39,44.63,33.534,44.093,32.998z"></path><path d="M88.568,0H9.432C4.491,0,0,4.02,0,8.96v55.608C0,69.51,4.491,74,9.432,74h31.279c0.159,2,0.311,8.268-0.323,10.369   c-1.163,1.729-13.49,5.365-24.164,7.854C15.56,92.379,15,92.854,15,93.537v4.992c0,0.813,0.835,1.471,1.647,1.471h64.707   C82.166,100,83,99.342,83,98.529v-4.992c0-0.684-0.559-1.277-1.225-1.434c-10.732-2.486-23.082-6.008-24.202-7.625   C56.896,82.277,56.925,76,57.039,74h31.529C93.508,74,98,69.51,98,64.568V8.96C98,4.02,93.508,0,88.568,0z M80,94.703V97H18v-2.298   c11-2.638,24.097-6.121,25.095-9.362C43.963,82.512,43.796,76,43.657,74h10.438c-0.104,2-0.188,8.514,0.682,11.343   C55.773,88.583,69,92.064,80,94.703z M95,64.98c0,3.326-3.695,6.02-7.02,6.02H9.02C5.695,71,3,68.307,3,64.98V9.019   C3,5.695,5.695,3,9.02,3h78.96C91.305,3,95,5.695,95,9.019V64.98z"></path><path d="M88.529,12H9.471C8.659,12,8,12.659,8,13.471v44.058C8,58.342,8.659,59,9.471,59h79.058C89.342,59,90,58.342,90,57.529   V13.471C90,12.659,89.342,12,88.529,12z M11,15h37v41H11V15z M87,56H51V15h36V56z"></path><path d="M54.5,36h29c0.828,0,1.5-0.671,1.5-1.5v-16c0-0.829-0.672-1.5-1.5-1.5h-29c-0.828,0-1.5,0.671-1.5,1.5v16   C53,35.329,53.672,36,54.5,36z M56,20h26v13H56V20z"></path><path d="M83,39H55c-0.828,0-1.5,0.671-1.5,1.5S54.172,42,55,42h28c0.828,0,1.5-0.671,1.5-1.5S83.828,39,83,39z"></path><path d="M83,45H55c-0.828,0-1.5,0.671-1.5,1.5S54.172,48,55,48h28c0.828,0,1.5-0.671,1.5-1.5S83.828,45,83,45z"></path><path d="M83,51H55c-0.828,0-1.5,0.672-1.5,1.5S54.172,54,55,54h28c0.828,0,1.5-0.672,1.5-1.5S83.828,51,83,51z"></path></g></g><g id="SvgjsG1023" featurekey="VGK2BT-0" transform="matrix(4.540897245709131,0,0,4.540897245709131,118.04557218498634,-20.863666204973672)" fill="#9896f1"><path d="M3.0676 6.441000000000001 c0.42373 0 0.66085 0.2878 0.66085 0.67763 l0 14.39 c-0.016949 1.661 -0.91525 2.9832 -2.2203 3.6781 c-0.18644 0.084746 -0.30525 0.067797 -0.38983 -0.084746 l-0.64407 -1.2373 c-0.08458 -0.16933 -0.050681 -0.28814 0.13576 -0.35593 c0.71186 -0.40678 1.2034 -1.1015 1.2034 -2.0507 l0 -13.83 c-0.016949 -0.37288 -0.067797 -0.59322 -0.10169 -0.84746 c-0.033898 -0.18644 0.016949 -0.33898 0.18644 -0.33898 l1.1695 0 z M19.203745762711865 19.69492 c0.08458 0.16966 0.033898 0.30508 -0.15254 0.30508 l-1.5424 0 c-0.15254 0 -0.23712 -0.067631 -0.28797 -0.18644 l-1.0508 -2.2034 l-7.3051 0 l-1.0339 2.2034 c-0.067797 0.11881 -0.15254 0.18644 -0.28814 0.18644 l-1.5593 0 c-0.16949 0 -0.25424 -0.13543 -0.18644 -0.30508 l6.3898 -13.186 c0.050847 -0.11864 0.13559 -0.15254 0.22034 -0.15254 l0.22017 0 c0.084746 0 0.15254 0.033898 0.22034 0.15254 z M9.695045762711864 15.8646 l5.6441 0 l-2.8136 -6 z M31.11820338983051 19.67797 c0.11864 0.16949 0.034064 0.32203 -0.1861 0.32203 l-1.2544 0 c-0.37288 0 -0.67814 -0.33881 -0.81356 -0.5422 l-2.6441 -3.8983 l-3.3559 0 l0 4.1525 c0 0.18644 -0.10169 0.28797 -0.27119 0.28797 l-1.3729 0 c-0.16949 0 -0.27119 -0.10153 -0.27119 -0.28797 l0 -13 c0 -0.15254 0.10169 -0.27119 0.27119 -0.27119 l5.2203 0 c2.9659 0 4.5592 2.5254 4.5592 4.5592 c0 1.6949 -1.0168 3.5934 -2.9322 4.2881 z M22.86460338983051 8.288 l0 5.4237 l3.3559 0 c1.9153 0 2.8644 -1.3729 2.8644 -2.7458 c0 -1.3559 -0.9661 -2.678 -2.8644 -2.678 l-3.3559 0 z M44.18625423728814 6.441000000000001 c0.16966 0 0.28831 0.11881 0.28831 0.27136 l0 13 c0 0.18644 -0.10169 0.28797 -0.25424 0.28797 l-1 0 c-0.42373 0 -0.66102 -0.28797 -0.66102 -0.6778 l0 -5.0169 l-7.4576 0 l0 5.4068 c0 0.15254 -0.11881 0.28797 -0.27119 0.28797 l-1.3559 0 c-0.16949 0 -0.28831 -0.11864 -0.28831 -0.28814 l0 -13 c0 -0.15254 0.10186 -0.27119 0.27119 -0.27119 l1.3559 0 c0.16949 0 0.28831 0.11864 0.28831 0.27119 l0 5.678 l7.4576 0 l0 -5.678 c0 -0.15254 0.10169 -0.27119 0.27119 -0.27119 l1.3558 0 z"></path></g></svg>